<svg width="800" height="500" xmlns="http://www.w3.org/2000/svg">
  <!-- Background -->
  <rect width="800" height="500" fill="#f8f9fa"/>
  
  <!-- Title -->
  <text x="400" y="40" text-anchor="middle" font-family="Arial, sans-serif" font-size="20" font-weight="bold" fill="#333">国产 AI 助手综合能力对比</text>
  
  <!-- Legend -->
  <rect x="50" y="60" width="15" height="15" fill="#FF6B6B"/>
  <text x="70" y="72" font-family="Arial" font-size="12" fill="#666">日常对话</text>
  <rect x="160" y="60" width="15" height="15" fill="#4ECDC4"/>
  <text x="180" y="72" font-family="Arial" font-size="12" fill="#666">长文本处理</text>
  <rect x="290" y="60" width="15" height="15" fill="#45B7D1"/>
  <text x="310" y="72" font-family="Arial" font-size="12" fill="#666">代码能力</text>
  <rect x="400" y="60" width="15" height="15" fill="#FFA07A"/>
  <text x="420" y="72" font-family="Arial" font-size="12" fill="#666">多模态</text>
  <rect x="500" y="60" width="15" height="15" fill="#98D8C8"/>
  <text x="520" y="72" font-family="Arial" font-size="12" fill="#666">性价比</text>
  
  <!-- Bars for Kimi -->
  <text x="100" y="120" font-family="Arial" font-size="14" font-weight="bold" fill="#333">Kimi</text>
  <rect x="100" y="130" width="40" height="25" fill="#FF6B6B"/><text x="145" y="147" font-family="Arial" font-size="11" fill="#333">4</text>
  <rect x="145" y="130" width="40" height="25" fill="#4ECDC4"/><text x="190" y="147" font-family="Arial" font-size="11" fill="#333">5</text>
  <rect x="190" y="130" width="40" height="25" fill="#45B7D1"/><text x="235" y="147" font-family="Arial" font-size="11" fill="#333">4</text>
  <rect x="235" y="130" width="40" height="25" fill="#FFA07A"/><text x="280" y="147" font-family="Arial" font-size="11" fill="#333">4</text>
  <rect x="280" y="130" width="40" height="25" fill="#98D8C8"/><text x="325" y="147" font-family="Arial" font-size="11" fill="#333">4</text>
  
  <!-- Bars for 文心一言 -->
  <text x="100" y="190" font-family="Arial" font-size="14" font-weight="bold" fill="#333">文心一言</text>
  <rect x="100" y="200" width="50" height="25" fill="#FF6B6B"/><text x="155" y="217" font-family="Arial" font-size="11" fill="#333">5</text>
  <rect x="155" y="200" width="40" height="25" fill="#4ECDC4"/><text x="200" y="217" font-family="Arial" font-size="11" fill="#333">4</text>
  <rect x="200" y="200" width="30" height="25" fill="#45B7D1"/><text x="235" y="217" font-family="Arial" font-size="11" fill="#333">3</text>
  <rect x="235" y="200" width="50" height="25" fill="#FFA07A"/><text x="290" y="217" font-family="Arial" font-size="11" fill="#333">5</text>
  <rect x="290" y="200" width="30" height="25" fill="#98D8C8"/><text x="325" y="217" font-family="Arial" font-size="11" fill="#333">3</text>
  
  <!-- Bars for 通义千问 -->
  <text x="100" y="260" font-family="Arial" font-size="14" font-weight="bold" fill="#333">通义千问</text>
  <rect x="100" y="270" width="40" height="25" fill="#FF6B6B"/><text x="145" y="287" font-family="Arial" font-size="11" fill="#333">4</text>
  <rect x="145" y="270" width="40" height="25" fill="#4ECDC4"/><text x="190" y="287" font-family="Arial" font-size="11" fill="#333">4</text>
  <rect x="190" y="270" width="50" height="25" fill="#45B7D1"/><text x="245" y="287" font-family="Arial" font-size="11" fill="#333">5</text>
  <rect x="245" y="270" width="40" height="25" fill="#FFA07A"/><text x="290" y="287" font-family="Arial" font-size="11" fill="#333">4</text>
  <rect x="290" y="270" width="50" height="25" fill="#98D8C8"/><text x="345" y="287" font-family="Arial" font-size="11" fill="#333">5</text>
  
  <!-- Bars for 豆包 -->
  <text x="100" y="330" font-family="Arial" font-size="14" font-weight="bold" fill="#333">豆包</text>
  <rect x="100" y="340" width="30" height="25" fill="#FF6B6B"/><text x="135" y="357" font-family="Arial" font-size="11" fill="#333">3</text>
  <rect x="135" y="340" width="30" height="25" fill="#4ECDC4"/><text x="170" y="357" font-family="Arial" font-size="11" fill="#333">3</text>
  <rect x="170" y="340" width="20" height="25" fill="#45B7D1"/><text x="195" y="357" font-family="Arial" font-size="11" fill="#333">2</text>
  <rect x="195" y="340" width="30" height="25" fill="#FFA07A"/><text x="230" y="357" font-family="Arial" font-size="11" fill="#333">3</text>
  <rect x="230" y="340" width="50" height="25" fill="#98D8C8"/><text x="285" y="357" font-family="Arial" font-size="11" fill="#333">5</text>
  
  <!-- Bars for 智谱清言 -->
  <text x="100" y="400" font-family="Arial" font-size="14" font-weight="bold" fill="#333">智谱清言</text>
  <rect x="100" y="410" width="40" height="25" fill="#FF6B6B"/><text x="145" y="427" font-family="Arial" font-size="11" fill="#333">4</text>
  <rect x="145" y="410" width="50" height="25" fill="#4ECDC4"/><text x="200" y="427" font-family="Arial" font-size="11" fill="#333">5</text>
  <rect x="200" y="410" width="40" height="25" fill="#45B7D1"/><text x="245" y="427" font-family="Arial" font-size="11" fill="#333">4</text>
  <rect x="245" y="410" width="30" height="25" fill="#FFA07A"/><text x="280" y="427" font-family="Arial" font-size="11" fill="#333">3</text>
  <rect x="280" y="410" width="30" height="25" fill="#98D8C8"/><text x="315" y="427" font-family="Arial" font-size="11" fill="#333">3</text>
  
  <!-- Scale -->
  <line x1="80" y1="120" x2="80" y2="440" stroke="#ddd" stroke-width="2"/>
  <text x="70" y="135" text-anchor="end" font-family="Arial" font-size="10" fill="#999">5</text>
  <text x="70" y="215" text-anchor="end" font-family="Arial" font-size="10" fill="#999">3</text>
  <text x="70" y="295" text-anchor="end" font-family="Arial" font-size="10" fill="#999">1</text>
</svg>
